<?xml version="1.0" standalone="no"?>
<!DOCTYPE svg PUBLIC "-//W3C//DTD SVG 20010904//EN"
 "http://www.w3.org/TR/2001/REC-SVG-20010904/DTD/svg10.dtd">
<svg version="1.0" xmlns="http://www.w3.org/2000/svg"
 width="512.000000pt" height="512.000000pt" viewBox="0 0 512.000000 512.000000"
 preserveAspectRatio="xMidYMid meet">
<metadata>
Created by potrace 1.16, written by Peter Selinger 2001-2019
</metadata>
<g transform="translate(0.000000,512.000000) scale(0.100000,-0.100000)"
fill="#000000" stroke="none">
<path d="M562 3981 c-100 -34 -181 -125 -202 -224 -7 -37 -10 -406 -8 -1227
l3 -1175 28 -57 c32 -65 89 -121 156 -152 l46 -21 1975 0 1975 0 46 21 c67 31
124 87 156 152 l28 57 0 1205 0 1205 -28 57 c-32 65 -89 121 -156 152 l-46 21
-1960 2 c-1878 2 -1962 2 -2013 -16z m3898 -149 c0 -13 -1710 -1377 -1756
-1401 -82 -43 -202 -44 -284 -3 -42 21 -1760 1391 -1760 1404 0 4 855 8 1900
8 1045 0 1900 -4 1900 -8z m-3325 -602 c319 -254 583 -466 587 -469 5 -4 -257
-325 -581 -714 -520 -624 -591 -705 -602 -690 -12 13 -14 221 -17 1191 -2
1122 -1 1175 15 1160 10 -8 279 -223 598 -478z m3453 -1857 c-7 -14 -17 -25
-21 -25 -9 1 -1179 1403 -1175 1407 2 2 273 219 603 483 l600 480 3 -1160 c2
-914 -1 -1165 -10 -1185z m-2321 955 c92 -68 174 -93 298 -92 76 1 115 6 160
23 79 29 105 46 337 233 l197 158 569 -683 570 -682 -919 -3 c-505 -1 -1333
-1 -1838 0 l-919 3 570 682 569 683 172 -138 c95 -76 200 -159 234 -184z"/>
</g>
</svg>
