<?xml version="1.0" standalone="no"?>
<!DOCTYPE svg PUBLIC "-//W3C//DTD SVG 20010904//EN"
 "http://www.w3.org/TR/2001/REC-SVG-20010904/DTD/svg10.dtd">
<svg version="1.0" xmlns="http://www.w3.org/2000/svg"
 width="512.000000pt" height="512.000000pt" viewBox="0 0 512.000000 512.000000"
 preserveAspectRatio="xMidYMid meet">
<metadata>
Created by potrace 1.16, written by Peter Selinger 2001-2019
</metadata>
<g transform="translate(0.000000,512.000000) scale(0.100000,-0.100000)"
fill="#000000" stroke="none">
<path d="M2401 4689 c-41 -5 -116 -20 -168 -34 -427 -114 -763 -431 -897 -850
-42 -132 -56 -240 -56 -444 l0 -187 -49 -13 c-213 -54 -438 -259 -527 -479
-56 -139 -57 -149 -61 -802 -5 -637 0 -742 39 -869 75 -246 277 -455 518 -535
152 -50 174 -51 1360 -51 1182 0 1202 1 1359 50 229 73 432 276 511 514 47
142 52 227 47 891 -3 520 -6 615 -21 674 -36 150 -95 260 -200 373 -108 116
-243 203 -367 234 l-49 13 0 187 c0 204 -14 312 -56 444 -188 588 -764 956
-1383 884z m399 -464 c199 -64 355 -180 466 -346 102 -153 134 -268 141 -506
l6 -173 -853 0 -853 0 6 173 c4 126 10 192 25 247 76 286 285 507 565 599 102
34 151 40 287 36 102 -2 141 -8 210 -30z m936 -1476 c80 -20 141 -57 202 -124
105 -115 116 -207 109 -908 -5 -520 -9 -562 -59 -648 -55 -93 -140 -159 -241
-187 -57 -16 -153 -17 -1187 -17 -1034 0 -1130 1 -1187 17 -101 28 -186 94
-241 187 -50 86 -54 128 -59 649 -7 706 4 793 112 910 84 91 159 122 325 135
25 2 522 3 1105 2 895 -1 1069 -4 1121 -16z"/>
<path d="M2465 2223 c-51 -27 -94 -75 -110 -124 -14 -40 -16 -91 -13 -306 l3
-258 28 -47 c40 -69 102 -103 187 -103 71 1 108 15 154 61 60 60 61 67 64 344
2 172 0 268 -8 296 -15 53 -61 109 -111 134 -48 25 -150 26 -194 3z"/>
</g>
</svg>
